# xmcd CD database file
#
# Track frame offsets:
#	183
#	26205
#	50608
#	73475
#	93900
#	121013
#	139708
#	159938
#
# Disc length: 2409 seconds
#
# Revision: 0
# Processed by: cddbd v1.5.1PL0 Copyright (c) Steve Scherf et al.
# Submitted via: CDex 1.51
#
DISCID=6a096708
DTITLE=Salsa - Willie Gonzalez - Para Ustedes... "El Publico"
DYEAR=1990
DGENRE=Salsa
TTITLE0=Una Vez Mas
TTITLE1=Quiero Comenzar
TTITLE2=Tomame Como Soy
TTITLE3=Pensando En Ti
TTITLE4=Doble Vida
TTITLE5=He Vuelto
TTITLE6=Enamorado De Ti
TTITLE7=Para Quien Pierde el Camino
EXTD=YEAR: 1990
EXTT0=
EXTT1=
EXTT2=
EXTT3=
EXTT4=
EXTT5=
EXTT6=
EXTT7=
PLAYORDER=
